<!--?xml version="1.0" encoding="utf-8"?-->
<svg xmlns="http://www.w3.org/2000/svg" viewBox="0 0 24 24" width="20" height="20" fill="black">
  <path d="M12 .5C5.73.5.5 5.73.5 12c0 5.1 3.29 9.42 7.86 10.95.58.11.79-.25.79-.56 0-.28-.01-1.02-.02-2-3.2.7-3.87-1.54-3.87-1.54-.53-1.34-1.3-1.7-1.3-1.7-1.06-.72.08-.71.08-.71 1.17.08 1.79 1.2 1.79 1.2 1.04 1.78 2.73 1.27 3.39.97.11-.76.41-1.27.74-1.56-2.56-.29-5.26-1.28-5.26-5.7 0-1.26.45-2.29 1.2-3.1-.12-.3-.52-1.52.11-3.16 0 0 .98-.31 3.2 1.18A11.05 11.05 0 0112 6.8c.99.005 1.99.13 2.92.38 2.22-1.49 3.2-1.18 3.2-1.18.63 1.64.23 2.86.11 3.16.75.81 1.2 1.84 1.2 3.1 0 4.45-2.71 5.4-5.29 5.69.42.37.8 1.1.8 2.22 0 1.6-.015 2.9-.015 3.29 0 .31.2.68.8.56C20.71 21.42 24 17.1 24 12 24 5.73 18.27.5 12 .5z"></path>
</svg>
