<svg xmlns="http://www.w3.org/2000/svg" width="24" height="24" viewBox="0 0 24 24" fill="currentColor" aria-hidden="true">
  <path d="M19.14 12.936c.036-.305.06-.613.06-.936s-.024-.631-.07-.936l2.03-1.58a.5.5 0 0 0 .12-.64l-1.922-3.322a.5.5 0 0 0-.605-.22l-2.39.96a7.18 7.18 0 0 0-1.62-.94L14.9 2.7a.5.5 0 0 0-.497-.4h-3.806a.5.5 0 0 0-.497.4l-.383 2.468c-.57.23-1.105.53-1.61.88l-2.39-.96a.5.5 0 0 0-.605.22L2.59 8.96a.5.5 0 0 0 .12.64l2.03 1.58c-.046.305-.07.613-.07.936s.024.631.07.936L2.71 15.14a.5.5 0 0 0-.12.64l1.922 3.322c.138.238.41.345.65.27l2.39-.96c.505.35 1.04.65 1.61.88l.383 2.468c.06.316.33.538.66.538h3.806c.33 0 .6-.222.66-.538l.383-2.468c.57-.23 1.105-.53 1.62-.94l2.39.96c.24.075.512-.032.65-.27l1.922-3.322a.5.5 0 0 0-.12-.64l-2.03-1.58zM12 15.5A3.5 3.5 0 1 1 12 8.5a3.5 3.5 0 0 1 0 7z"></path>
</svg>
